<svg width="239" height="81" viewBox="0 0 239 81" fill="none" xmlns="http://www.w3.org/2000/svg">
<rect width="239" height="81" rx="12" fill="#631485"/>
<g clip-path="url(#clip0_1_8)">
<path d="M67.318 34.0631C68.4746 35.762 69.7363 36.8636 71.1142 37.2308C72.47 37.5926 74.0582 37.2637 75.9287 36.1292C76.6813 35.6689 77.6663 35.9045 78.1256 36.6499C78.2806 36.902 78.358 37.176 78.3636 37.4555C78.4355 38.2228 78.4798 39.0011 78.4964 39.7903C78.513 40.5904 78.5074 41.3851 78.4687 42.1743C78.4687 42.2456 78.4632 42.3168 78.4521 42.3826C77.9485 51.5461 73.7649 59.6519 67.3844 65.3626C60.9928 71.0843 52.4098 74.4001 43.135 73.9616V73.9671C43.0631 73.9671 42.9912 73.9616 42.9248 73.9507C33.6722 73.4519 25.4876 69.3086 19.7213 62.9895C13.9384 56.6595 10.596 48.1591 11.0387 38.9737C11.0387 38.9024 11.0442 38.8312 11.0553 38.7654C11.5533 29.5909 15.8753 21.4413 22.3831 15.6977C28.8964 9.94306 37.6123 6.59991 46.887 7.03836C47.7724 7.03836 48.4863 7.74535 48.4863 8.62224C48.4863 8.84147 48.442 9.04973 48.359 9.23607C47.7116 11.3242 47.6673 13.2588 48.2096 14.7934C48.7021 16.1854 49.7037 17.2651 51.2034 17.8186C52.0003 18.1146 52.4209 18.9696 52.1663 19.7642H52.1718C51.1591 22.9923 51.137 25.8367 51.8841 28.1276C52.3379 29.5142 53.0683 30.698 54.0312 31.6352C54.9941 32.5778 56.1894 33.2793 57.5673 33.7068C59.803 34.3974 62.5146 34.3535 65.4863 33.4054C66.1891 33.1862 66.9362 33.4712 67.318 34.0631ZM43.8046 38.7106C45.3375 38.7106 46.5771 39.9382 46.5771 41.4564C46.5771 42.9745 45.3375 44.2021 43.8046 44.2021C42.2718 44.2021 41.0322 42.9745 41.0322 41.4564C41.0322 39.9382 42.2773 38.7106 43.8046 38.7106ZM31.7851 50.017C33.65 50.017 35.1663 51.5132 35.1663 53.3656C35.1663 55.2181 33.6556 56.7143 31.7851 56.7143C29.9147 56.7143 28.4039 55.2181 28.4039 53.3656C28.4039 51.5132 29.9147 50.017 31.7851 50.017ZM39.0677 24.4008C40.5341 24.4008 41.7184 25.5737 41.7184 27.026C41.7184 28.4784 40.5341 29.6512 39.0677 29.6512C37.6012 29.6512 36.417 28.4784 36.417 27.026C36.417 25.5737 37.6067 24.4008 39.0677 24.4008ZM77.0188 24.7571C78.1145 24.7571 79 25.6339 79 26.7191C79 27.8042 78.1145 28.6811 77.0188 28.6811C75.9231 28.6811 75.0377 27.8042 75.0377 26.7191C75.0322 25.6394 75.9231 24.7571 77.0188 24.7571ZM62.8079 19.556C64.457 19.556 65.7907 20.8768 65.7907 22.51C65.7907 24.1432 64.457 25.464 62.8079 25.464C61.1588 25.464 59.8252 24.1432 59.8252 22.51C59.8252 20.8823 61.1588 19.556 62.8079 19.556ZM65.1155 7.32335C66.8808 7.32335 68.3141 8.74282 68.3141 10.4911C68.3141 12.2394 66.8808 13.6589 65.1155 13.6589C63.3502 13.6589 61.917 12.2394 61.917 10.4911C61.9225 8.73734 63.3502 7.32335 65.1155 7.32335ZM53.4612 51.1899C55.9127 51.1899 57.9049 53.1574 57.9049 55.5908C57.9049 58.0186 55.9183 59.9917 53.4612 59.9917C51.0042 59.9917 49.0175 58.0241 49.0175 55.5908C49.0175 53.1574 51.0042 51.1899 53.4612 51.1899ZM28.6585 32.6381C31.3147 32.6381 33.4674 34.7701 33.4674 37.4007C33.4674 40.0314 31.3147 42.1634 28.6585 42.1634C26.0022 42.1634 23.8496 40.0314 23.8496 37.4007C23.8496 34.7755 26.0022 32.6381 28.6585 32.6381ZM70.2841 40.289C68.4082 39.7903 66.7701 38.5681 65.3313 36.7376C62.1328 37.5706 59.1556 37.5103 56.61 36.7266C54.7451 36.1512 53.1126 35.1866 51.79 33.8877C50.4674 32.5888 49.4602 30.972 48.846 29.0922C48.0104 26.5382 47.9108 23.502 48.7464 20.1479C47.0309 19.1614 45.8411 17.6652 45.1936 15.8292C44.6071 14.1576 44.4853 12.2175 44.8561 10.1568C37.1585 10.2609 29.9811 13.2259 24.5081 18.0598C18.6035 23.2718 14.6855 30.6487 14.2317 38.9463V38.9737L14.2262 39.0449C13.8056 47.4028 16.8382 55.1304 22.0787 60.874C27.3027 66.5957 34.7181 70.3499 43.1074 70.7939H43.135L43.207 70.7993C51.6406 71.2213 59.4489 68.218 65.2483 63.0224C71.0257 57.8487 74.8164 50.5048 75.2646 42.1962V42.1688L75.2701 42.0976C75.3089 41.3632 75.3199 40.6507 75.3033 39.9547C73.5214 40.6178 71.8502 40.711 70.2841 40.289Z" fill="white"/>
</g>
<path d="M122.705 32H117.773C117.481 30.5814 116.971 29.3352 116.241 28.2614C115.526 27.1875 114.651 26.286 113.616 25.5568C112.596 24.8144 111.462 24.2576 110.216 23.8864C108.97 23.5152 107.67 23.3295 106.318 23.3295C103.852 23.3295 101.618 23.9527 99.6165 25.1989C97.6278 26.4451 96.0436 28.2812 94.8636 30.7074C93.697 33.1335 93.1136 36.1098 93.1136 39.6364C93.1136 43.1629 93.697 46.1392 94.8636 48.5653C96.0436 50.9915 97.6278 52.8277 99.6165 54.0739C101.618 55.3201 103.852 55.9432 106.318 55.9432C107.67 55.9432 108.97 55.7576 110.216 55.3864C111.462 55.0152 112.596 54.465 113.616 53.7358C114.651 52.9934 115.526 52.0852 116.241 51.0114C116.971 49.9242 117.481 48.678 117.773 47.2727H122.705C122.333 49.3542 121.657 51.2169 120.676 52.8608C119.695 54.5047 118.475 55.9034 117.017 57.0568C115.559 58.197 113.921 59.0653 112.105 59.6619C110.302 60.2585 108.373 60.5568 106.318 60.5568C102.845 60.5568 99.7557 59.7083 97.0511 58.0114C94.3466 56.3144 92.2188 53.9015 90.6676 50.7727C89.1165 47.6439 88.3409 43.9318 88.3409 39.6364C88.3409 35.3409 89.1165 31.6288 90.6676 28.5C92.2188 25.3712 94.3466 22.9583 97.0511 21.2614C99.7557 19.5644 102.845 18.7159 106.318 18.7159C108.373 18.7159 110.302 19.0142 112.105 19.6108C113.921 20.2074 115.559 21.0824 117.017 22.2358C118.475 23.3759 119.695 24.768 120.676 26.4119C121.657 28.0426 122.333 29.9053 122.705 32ZM134.731 19.2727V60H130.038V19.2727H134.731ZM143.327 60V29.4545H148.02V60H143.327ZM145.713 24.3636C144.798 24.3636 144.009 24.0521 143.347 23.429C142.697 22.8059 142.372 22.0568 142.372 21.1818C142.372 20.3068 142.697 19.5578 143.347 18.9347C144.009 18.3116 144.798 18 145.713 18C146.628 18 147.41 18.3116 148.06 18.9347C148.723 19.5578 149.054 20.3068 149.054 21.1818C149.054 22.0568 148.723 22.8059 148.06 23.429C147.41 24.0521 146.628 24.3636 145.713 24.3636ZM169.025 60.6364C166.161 60.6364 163.695 59.9602 161.627 58.608C159.559 57.2557 157.968 55.393 156.854 53.0199C155.741 50.6468 155.184 47.9356 155.184 44.8864C155.184 41.7841 155.754 39.0464 156.894 36.6733C158.048 34.2869 159.652 32.4242 161.707 31.0852C163.775 29.733 166.188 29.0568 168.945 29.0568C171.093 29.0568 173.029 29.4545 174.752 30.25C176.476 31.0455 177.888 32.1591 178.988 33.5909C180.088 35.0227 180.771 36.6932 181.036 38.6023H176.343C175.985 37.2102 175.19 35.9773 173.957 34.9034C172.737 33.8163 171.093 33.2727 169.025 33.2727C167.195 33.2727 165.591 33.75 164.212 34.7045C162.847 35.6458 161.78 36.9782 161.011 38.7017C160.255 40.4119 159.877 42.4205 159.877 44.7273C159.877 47.0871 160.248 49.142 160.991 50.892C161.746 52.642 162.807 54.0009 164.173 54.9688C165.551 55.9366 167.169 56.4205 169.025 56.4205C170.245 56.4205 171.352 56.2083 172.346 55.7841C173.34 55.3598 174.182 54.75 174.871 53.9545C175.561 53.1591 176.051 52.2045 176.343 51.0909H181.036C180.771 52.8939 180.115 54.518 179.067 55.9631C178.033 57.3949 176.661 58.535 174.951 59.3835C173.254 60.2188 171.279 60.6364 169.025 60.6364ZM192.272 48.8636L192.192 43.0568H193.147L206.511 29.4545H212.317L198.079 43.8523H197.681L192.272 48.8636ZM187.897 60V19.2727H192.59V60H187.897ZM207.306 60L195.374 44.8864L198.715 41.625L213.272 60H207.306ZM224.562 19.2727L224.165 48.5455H219.551L219.153 19.2727H224.562ZM221.858 60.3182C220.877 60.3182 220.035 59.9669 219.332 59.2642C218.63 58.5616 218.278 57.7197 218.278 56.7386C218.278 55.7576 218.63 54.9157 219.332 54.2131C220.035 53.5104 220.877 53.1591 221.858 53.1591C222.839 53.1591 223.681 53.5104 224.384 54.2131C225.086 54.9157 225.438 55.7576 225.438 56.7386C225.438 57.3883 225.272 57.9848 224.94 58.5284C224.622 59.072 224.191 59.5095 223.648 59.8409C223.117 60.1591 222.521 60.3182 221.858 60.3182Z" fill="white"/>
<defs>
<clipPath id="clip0_1_8">
<rect width="68" height="67" fill="white" transform="translate(11 7)"/>
</clipPath>
</defs>
</svg>
