<?xml version="1.0" encoding="UTF-8" standalone="no"?>
<svg
   id="Layer_1"
   data-name="Layer 1"
   viewBox="0 0 117.16001 122.93"
   version="1.1"
   sodipodi:docname="contacts.svg"
   width="117.16"
   height="122.93"
   inkscape:version="1.4.2 (ebf0e940d0, 2025-05-08)"
   xmlns:inkscape="http://www.inkscape.org/namespaces/inkscape"
   xmlns:sodipodi="http://sodipodi.sourceforge.net/DTD/sodipodi-0.dtd"
   xmlns="http://www.w3.org/2000/svg"
   xmlns:svg="http://www.w3.org/2000/svg"
   xmlns:rdf="http://www.w3.org/1999/02/22-rdf-syntax-ns#"
   xmlns:cc="http://creativecommons.org/ns#"
   xmlns:dc="http://purl.org/dc/elements/1.1/">
  <defs
     id="defs1" />
  <sodipodi:namedview
     id="namedview1"
     pagecolor="#ffffff"
     bordercolor="#000000"
     borderopacity="0.25"
     inkscape:showpageshadow="2"
     inkscape:pageopacity="0.0"
     inkscape:pagecheckerboard="0"
     inkscape:deskcolor="#d1d1d1"
     inkscape:zoom="6.9905601"
     inkscape:cx="58.578998"
     inkscape:cy="61.439999"
     inkscape:window-width="1916"
     inkscape:window-height="992"
     inkscape:window-x="0"
     inkscape:window-y="0"
     inkscape:window-maximized="1"
     inkscape:current-layer="Layer_1" />
  <title
     id="title1">contacts</title>
  <path
     d="m 105.87,80.26 h 7.88 a 3.4,3.4 0 0 1 1.18,0.2 3.2,3.2 0 0 1 1.23,0.76 v 0 a 3.17,3.17 0 0 1 0.77,1.22 v 0 a 3.75,3.75 0 0 1 0.2,1.18 v 15.9 a 3,3 0 0 1 -0.11,0.83 l -0.06,0.23 a 3.11,3.11 0 0 1 -0.74,1.19 3.27,3.27 0 0 1 -0.81,0.6 2.93,2.93 0 0 1 -1.34,0.32 h -8.2 V 104 a 19,19 0 0 1 -18.93,18.93 h -68 A 19,19 0 0 1 0,104 V 19 A 19,19 0 0 1 18.93,0 h 68 a 19,19 0 0 1 18.93,18.93 v 1.83 h 7.88 a 3.29,3.29 0 0 1 1.44,0.32 3.18,3.18 0 0 1 1.23,1 v 0 a 3.53,3.53 0 0 1 0.55,1.05 v 0 a 3.58,3.58 0 0 1 0.18,1.11 v 15.9 a 2.79,2.79 0 0 1 -0.19,1 2,2 0 0 1 -0.18,0.4 3.05,3.05 0 0 1 -0.79,0.94 3.79,3.79 0 0 1 -0.56,0.36 v 0 a 2.94,2.94 0 0 1 -1.33,0.33 h -8.2 v 7 h 7.88 a 3.37,3.37 0 0 1 1.44,0.32 v 0 a 3.25,3.25 0 0 1 1.23,1 v 0 a 3.46,3.46 0 0 1 0.5,0.89 3.34,3.34 0 0 1 0.22,1.19 v 16 a 3,3 0 0 1 -0.32,1.33 3.23,3.23 0 0 1 -0.59,0.82 v 0 a 2.92,2.92 0 0 1 -0.83,0.6 v 0 a 3,3 0 0 1 -1.32,0.32 h -8.2 v 7.59 z M 52.94,27.46 a 34,34 0 1 1 -24,10 33.87,33.87 0 0 1 24,-10 z M 73.6,40.77 a 29.23,29.23 0 0 0 -44,38.2 c 3.5,-1.58 11.14,-2.23 14.42,-4.51 a 11.81,11.81 0 0 0 0.79,-1.53 c 0.39,-0.91 0.76,-1.9 1,-2.57 a 32.4,32.4 0 0 1 -2.58,-3.68 l -2.61,-4.16 a 7.68,7.68 0 0 1 -1.49,-3.8 3,3 0 0 1 0.26,-1.36 2.66,2.66 0 0 1 1.47,-1.36 63.89,63.89 0 0 1 -0.13,-7.48 11.17,11.17 0 0 1 0.32,-1.69 10,10 0 0 1 4.42,-5.63 13.49,13.49 0 0 1 3.7,-1.64 c 0.83,-0.24 -0.71,-2.89 0.15,-3 4.15,-0.42 10.87,3.37 13.77,6.5 a 10.19,10.19 0 0 1 2.56,6.41 l -0.16,6.79 v 0 a 1.87,1.87 0 0 1 1.37,1.42 5.88,5.88 0 0 1 -0.72,3.57 v 0 0.09 l -3,4.91 a 25.92,25.92 0 0 1 -3.66,5 l 0.4,0.57 a 17.81,17.81 0 0 0 2,2.51 0.27,0.27 0 0 1 0.07,0.08 c 3.25,2.3 10.92,3 14.44,4.53 A 29.25,29.25 0 0 0 73.6,40.77 Z M 86.94,7.12 h -68 A 11.88,11.88 0 0 0 7.12,18.93 v 85 a 11.88,11.88 0 0 0 11.81,11.81 h 68 A 11.88,11.88 0 0 0 98.75,104 V 19 A 11.88,11.88 0 0 0 86.94,7.12 Z"
     id="path1"
     style="fill:#ffffff" />
  <metadata
     id="metadata1">
    <rdf:RDF>
      <cc:Work
         rdf:about="">
        <dc:title>contacts</dc:title>
      </cc:Work>
    </rdf:RDF>
  </metadata>
</svg>
