<?xml version="1.0" encoding="UTF-8" standalone="no"?>
<svg
   shape-rendering="geometricPrecision"
   text-rendering="geometricPrecision"
   image-rendering="optimizeQuality"
   fill-rule="evenodd"
   clip-rule="evenodd"
   viewBox="0 0 510.99658 512.10085"
   version="1.1"
   id="svg3"
   sodipodi:docname="cookie.svg"
   width="510.99658"
   height="512.10083"
   inkscape:version="1.4.2 (ebf0e940d0, 2025-05-08)"
   xmlns:inkscape="http://www.inkscape.org/namespaces/inkscape"
   xmlns:sodipodi="http://sodipodi.sourceforge.net/DTD/sodipodi-0.dtd"
   xmlns="http://www.w3.org/2000/svg"
   xmlns:svg="http://www.w3.org/2000/svg">
  <defs
     id="defs3" />
  <sodipodi:namedview
     id="namedview3"
     pagecolor="#ffffff"
     bordercolor="#000000"
     borderopacity="0.25"
     inkscape:showpageshadow="2"
     inkscape:pageopacity="0.0"
     inkscape:pagecheckerboard="0"
     inkscape:deskcolor="#d1d1d1"
     inkscape:zoom="1.6774068"
     inkscape:cx="255.45383"
     inkscape:cy="256.04999"
     inkscape:window-width="1920"
     inkscape:window-height="1052"
     inkscape:window-x="0"
     inkscape:window-y="0"
     inkscape:window-maximized="1"
     inkscape:current-layer="svg3" />
  <path
     fill="#773e15"
     d="m 491.84764,139.6333 c 8.02,0 14.52,6.5 14.52,14.52 0,8.02 -6.5,14.53 -14.52,14.53 -8.02,0 -14.52,-6.51 -14.52,-14.53 0,-8.02 6.5,-14.52 14.52,-14.52 z m -64.11,64.34 c 7.32,10.84 14.97,17.75 22.99,19.92 7.68,2.07 17.17,-0.09 28.77,-7.22 9.41,-5.78 21.73,-2.84 27.51,6.57 1.96,3.18 2.92,6.69 2.96,10.18 0.51,5.6 0.83,11.35 0.96,17.23 0.14,6.35 0.07,12.61 -0.24,18.71 -3.54,70.48 -35.32,132.85 -83.83,176.72 -48.52,43.86 -113.74,69.23 -184.12,65.69 -70.47,-3.54 -132.85,-35.33 -176.719998,-83.83 -43.87,-48.52 -69.2300002,-113.73 -65.69000022,-184.12 C 3.8676418,173.4533 36.487642,110.9133 85.777642,66.803301 135.25764,22.533301 201.55764,-3.2166985 272.07764,0.32330149 c 11,0.52 19.51,9.86999951 18.99,20.86999951 -0.1,2.16 -0.54,4.21 -1.26,6.12 -4.21,13.71 -4.56,26.18 -1.17,35.89 2.79,7.99 8.49,14.18 17,17.34 9.97,3.71 15.21,14.57 12.07,24.609999 l 0.05,0.01 c -6.91,22.15 -7.09,41.49 -2.13,56.87 2.88,8.95 7.55,16.57 13.64,22.59 6.09,6.02 13.73,10.55 22.55,13.3 14.81,4.61 32.96,4.28 53.01,-2.19 8.81,-2.83 18.15,0.79 22.91,8.24 z m -39.96,-102.81 c 12.07,0 21.86,9.79 21.86,21.86 0,12.07 -9.79,21.87 -21.86,21.87 -12.08,0 -21.86,-9.8 -21.86,-21.87 0,-12.07 9.78,-21.86 21.86,-21.86 z m 16.9,-90.509999 c 12.93,0 23.41,10.49 23.41,23.42 0,12.94 -10.48,23.42 -23.41,23.42 -12.93,0 -23.42,-10.48 -23.42,-23.42 0,-12.93 10.49,-23.42 23.42,-23.42 z"
     id="path1" />
  <path
     fill="#cc7a3d"
     d="m 410.92764,214.7233 c 20.21,30.17 45.81,39.43 79.04,18.99 1.1,11.37 1.38,22.96 0.79,34.71 -6.54,129.93 -117.16,229.96 -247.08,223.42 -129.93,-6.53 -229.949998,-117.16 -223.419998,-247.08 6.53,-129.92 120.949998,-231.039999 250.879998,-224.499999 -11.52,36.03 -1.78,68.05 27.54,78.96 -26.59,85.329999 32.74,141.159999 112.25,115.499999 z"
     id="path2" />
  <path
     fill="#965323"
     d="m 137.63764,197.9133 c 19.46,0 35.24,15.78 35.24,35.24 0,19.47 -15.78,35.25 -35.24,35.25 -19.46,0 -35.24,-15.78 -35.24,-35.25 0,-19.46 15.78,-35.24 35.24,-35.24 z m 313.76,83.48 c 7.48,0 13.54,6.06 13.54,13.53 0,7.47 -6.06,13.54 -13.54,13.54 -7.47,0 -13.53,-6.07 -13.53,-13.54 0,-7.47 6.06,-13.53 13.53,-13.53 z m -60.43,13.77 c 7.48,0 13.53,6.06 13.53,13.53 0,7.47 -6.05,13.53 -13.53,13.53 -7.47,0 -13.53,-6.06 -13.53,-13.53 0,-7.47 6.06,-13.53 13.53,-13.53 z m -60.43,-30.84 c 5.91,0 10.7,4.8 10.7,10.71 0,5.91 -4.79,10.71 -10.7,10.71 -5.92,0 -10.71,-4.8 -10.71,-10.71 0,-5.91 4.79,-10.71 10.71,-10.71 z m -184.68,-165.699999 c 7.47,0 13.53,6.059999 13.53,13.529999 0,7.47 -6.06,13.53 -13.53,13.53 -7.48,0 -13.54,-6.06 -13.54,-13.53 0,-7.47 6.06,-13.529999 13.54,-13.529999 z m 102.71,144.189999 c 11.22,0 20.31,9.09 20.31,20.31 0,11.21 -9.09,20.3 -20.31,20.3 -11.21,0 -20.3,-9.09 -20.3,-20.3 0,-11.22 9.09,-20.31 20.3,-20.31 z m -88.06,83.61 c 13.67,0 24.76,11.09 24.76,24.75 0,13.67 -11.09,24.76 -24.76,24.76 -13.67,0 -24.74,-11.09 -24.74,-24.76 0,-13.66 11.07,-24.75 24.74,-24.75 z m 53.37,-189.46 c 10.73,0 19.42,8.7 19.42,19.42 0,10.72 -8.69,19.41 -19.42,19.41 -10.72,0 -19.41,-8.69 -19.41,-19.41 0,-10.72 8.69,-19.42 19.41,-19.42 z m 105.41,198.14 c 17.96,0 32.53,14.56 32.53,32.53 0,17.97 -14.57,32.53 -32.53,32.53 -17.97,0 -32.53,-14.56 -32.53,-32.53 0,-17.97 14.56,-32.53 32.53,-32.53 z"
     id="path3" />
</svg>
