<?xml version="1.0" encoding="UTF-8" standalone="no"?>
<svg
   version="1.1"
   id="Layer_1"
   x="0px"
   y="0px"
   viewBox="0 0 122.88 101.36225"
   xml:space="preserve"
   sodipodi:docname="notebook.svg"
   inkscape:version="1.4.2 (ebf0e940d0, 2025-05-08)"
   width="122.88"
   height="101.36225"
   xmlns:inkscape="http://www.inkscape.org/namespaces/inkscape"
   xmlns:sodipodi="http://sodipodi.sourceforge.net/DTD/sodipodi-0.dtd"
   xmlns="http://www.w3.org/2000/svg"
   xmlns:svg="http://www.w3.org/2000/svg"><defs
     id="defs1" /><sodipodi:namedview
     id="namedview1"
     pagecolor="#ffffff"
     bordercolor="#000000"
     borderopacity="0.25"
     inkscape:showpageshadow="2"
     inkscape:pageopacity="0.0"
     inkscape:pagecheckerboard="0"
     inkscape:deskcolor="#d1d1d1"
     inkscape:zoom="8.227286"
     inkscape:cx="61.44189"
     inkscape:cy="50.624228"
     inkscape:window-width="1920"
     inkscape:window-height="1052"
     inkscape:window-x="0"
     inkscape:window-y="0"
     inkscape:window-maximized="1"
     inkscape:current-layer="Layer_1" /><g
     id="g1"
     style="fill:#ffffff"
     transform="translate(0,0.00189571)"><path
       d="m 12.64,77.27 0.31,-54.92 h -6.2 v 69.88 c 8.52,-2.2 17.07,-3.6 25.68,-3.66 7.95,-0.05 15.9,1.06 23.87,3.76 C 51.35,88.32 45.83,85.37 39.94,83.45 32.52,81.03 24.5,80.23 16.28,80.93 14.42,81.08 12.8,79.7 12.64,77.85 c -0.02,-0.2 -0.02,-0.39 0,-0.58 z m 90.98,-57.79 c -0.02,-0.16 -0.04,-0.33 -0.04,-0.51 0,-0.17 0.01,-0.34 0.04,-0.51 V 7.34 C 95.82,6.6 87.78,7.46 80.76,10.12 74.2,12.61 68.54,16.7 64.86,22.56 V 85.9 c 5.72,-3.82 11.57,-6.96 17.58,-9.1 6.85,-2.44 13.89,-3.6 21.18,-3.02 z m 6.75,-3.88 h 9.14 c 1.86,0 3.37,1.51 3.37,3.37 v 77.66 c 0,1.86 -1.51,3.37 -3.37,3.37 -0.38,0 -0.75,-0.06 -1.09,-0.18 -9.4,-2.69 -18.74,-4.48 -27.99,-4.54 -9.02,-0.06 -18.03,1.53 -27.08,5.52 -0.56,0.37 -1.23,0.57 -1.92,0.56 -0.68,0.01 -1.35,-0.19 -1.92,-0.56 C 50.47,96.8 41.45,95.22 32.43,95.28 23.18,95.34 13.85,97.13 4.44,99.82 4.1,99.94 3.73,100 3.35,100 1.51,100.01 0,98.5 0,96.64 V 18.97 C 0,17.11 1.51,15.6 3.37,15.6 h 9.61 L 13.04,4.34 c 0.01,-1.62 1.15,-2.96 2.68,-3.28 v 0 c 8.87,-1.85 19.65,-1.39 29.1,2.23 6.53,2.5 12.46,6.49 16.79,12.25 4.37,-5.37 10.21,-9.23 16.78,-11.72 8.98,-3.41 19.34,-4.23 29.09,-2.8 1.68,0.24 2.88,1.69 2.88,3.33 v 0 11.25 z M 68.13,91.82 c 7.45,-2.34 14.89,-3.3 22.33,-3.26 8.61,0.05 17.16,1.46 25.68,3.66 V 22.35 h -5.77 v 55.22 c 0,1.86 -1.51,3.37 -3.37,3.37 -0.27,0 -0.53,-0.03 -0.78,-0.09 -7.38,-1.16 -14.53,-0.2 -21.51,2.29 -5.62,2.01 -11.14,5.01 -16.58,8.68 z M 58.12,85.25 V 22.46 C 54.59,16.23 48.88,12.06 42.43,9.59 35.12,6.79 26.91,6.16 19.75,7.18 l -0.38,66.81 c 7.81,-0.28 15.45,0.71 22.64,3.06 5.72,1.86 11.14,4.59 16.11,8.2 z"
       id="path1"
       style="fill:#ffffff" /></g></svg>
