<?xml version="1.0" encoding="UTF-8" standalone="no"?>
<svg
   viewBox="0 9.4700003 277.82999 46.32"
   data-asc="0.9052734375"
   width="277.82999"
   height="46.32"
   version="1.1"
   id="svg2"
   sodipodi:docname="i am.svg"
   inkscape:version="1.4.2 (ebf0e940d0, 2025-05-08)"
   xmlns:inkscape="http://www.inkscape.org/namespaces/inkscape"
   xmlns:sodipodi="http://sodipodi.sourceforge.net/DTD/sodipodi-0.dtd"
   xmlns="http://www.w3.org/2000/svg"
   xmlns:svg="http://www.w3.org/2000/svg">
  <sodipodi:namedview
     id="namedview2"
     pagecolor="#ffffff"
     bordercolor="#000000"
     borderopacity="0.25"
     inkscape:showpageshadow="2"
     inkscape:pageopacity="0.0"
     inkscape:pagecheckerboard="0"
     inkscape:deskcolor="#d1d1d1"
     inkscape:zoom="4.7331104"
     inkscape:cx="138.91499"
     inkscape:cy="23.134892"
     inkscape:window-width="1920"
     inkscape:window-height="1052"
     inkscape:window-x="0"
     inkscape:window-y="0"
     inkscape:window-maximized="1"
     inkscape:current-layer="svg2" />
  <defs
     id="defs1" />
  <g
     fill="#000000"
     id="g2"
     style="fill:#ffffff">
    <g
       id="g1"
       style="fill:#ffffff">
      <path
         d="M 0,45.26 V 9.47 H 4.74 V 45.26 Z M 12.55,22.14 11.43,15.45 V 9.47 h 5 v 5.98 l -1.17,6.69 z m 9.52,23.12 V 19.34 H 26 v 3.63 q 1.22,-1.9 3.25,-3.06 2.02,-1.16 4.61,-1.16 2.88,0 4.73,1.2 1.84,1.19 2.6,3.34 3.07,-4.54 8,-4.54 3.86,0 5.94,2.14 2.07,2.13 2.07,6.58 V 45.26 H 52.83 V 28.93 q 0,-2.64 -0.43,-3.8 -0.42,-1.16 -1.55,-1.86 -1.12,-0.71 -2.63,-0.71 -2.74,0 -4.54,1.82 -1.81,1.82 -1.81,5.82 V 45.26 H 37.48 V 28.42 q 0,-2.93 -1.08,-4.4 -1.07,-1.46 -3.51,-1.46 -1.86,0 -3.43,0.98 -1.58,0.97 -2.29,2.85 -0.71,1.88 -0.71,5.42 v 13.45 z m 56.18,0 V 9.47 h 15.87 q 4.78,0 7.27,0.97 2.49,0.96 3.98,3.4 1.49,2.44 1.49,5.4 0,3.81 -2.47,6.42 -2.46,2.61 -7.61,3.32 1.88,0.9 2.85,1.78 2.08,1.91 3.93,4.76 l 6.23,9.74 h -5.96 L 99.1,37.82 q -2.08,-3.23 -3.42,-4.93 -1.34,-1.71 -2.41,-2.4 -1.06,-0.68 -2.16,-0.95 -0.8,-0.17 -2.63,-0.17 h -5.5 v 15.89 h -4.73 m 4.73,-19.99 h 10.18 q 3.25,0 5.08,-0.67 1.83,-0.67 2.79,-2.15 0.95,-1.48 0.95,-3.21 0,-2.54 -1.85,-4.18 -1.84,-1.63 -5.82,-1.63 H 82.98 Z m 47.66,16.8 q -2.44,2.07 -4.7,2.93 -2.26,0.85 -4.85,0.85 -4.27,0 -6.56,-2.09 -2.3,-2.09 -2.3,-5.33 0,-1.91 0.87,-3.48 0.86,-1.58 2.27,-2.53 1.4,-0.95 3.16,-1.44 1.29,-0.34 3.91,-0.66 5.32,-0.63 7.83,-1.51 0.03,-0.9 0.03,-1.15 0,-2.68 -1.25,-3.78 -1.68,-1.49 -5,-1.49 -3.1,0 -4.58,1.08 -1.48,1.09 -2.18,3.85 l -4.3,-0.59 q 0.58,-2.76 1.93,-4.45 1.34,-1.7 3.88,-2.61 2.54,-0.92 5.88,-0.92 3.32,0 5.4,0.78 2.07,0.78 3.05,1.97 0.98,1.18 1.37,2.99 0.22,1.12 0.22,4.05 v 5.86 q 0,6.13 0.28,7.75 0.28,1.62 1.11,3.11 h -4.59 q -0.69,-1.36 -0.88,-3.19 m -0.37,-9.82 q -2.39,0.98 -7.17,1.66 -2.71,0.39 -3.84,0.88 -1.12,0.49 -1.73,1.43 -0.61,0.94 -0.61,2.09 0,1.75 1.33,2.93 1.33,1.17 3.89,1.17 2.54,0 4.52,-1.11 1.98,-1.11 2.91,-3.04 0.7,-1.49 0.7,-4.4 z m 28.08,13.01 v -3.27 q -2.47,3.86 -7.25,3.86 -3.1,0 -5.7,-1.71 -2.6,-1.71 -4.03,-4.77 -1.43,-3.07 -1.43,-7.05 0,-3.88 1.3,-7.04 1.29,-3.16 3.88,-4.85 2.59,-1.68 5.78,-1.68 2.35,0 4.18,0.99 1.83,0.99 2.98,2.57 V 9.47 h 4.37 v 35.79 h -4.08 M 144.46,32.32 q 0,4.98 2.1,7.45 2.1,2.47 4.95,2.47 2.88,0 4.9,-2.36 2.01,-2.36 2.01,-7.19 0,-5.32 -2.05,-7.81 -2.05,-2.49 -5.05,-2.49 -2.93,0 -4.9,2.39 -1.96,2.39 -1.96,7.54 z M 167.7,32.3 q 0,-7.2 4,-10.67 3.35,-2.88 8.16,-2.88 5.35,0 8.74,3.5 3.39,3.51 3.39,9.68 0,5.01 -1.5,7.88 -1.5,2.87 -4.37,4.45 -2.87,1.59 -6.26,1.59 -5.45,0 -8.8,-3.49 -3.36,-3.49 -3.36,-10.06 m 4.52,0 q 0,4.98 2.17,7.46 2.17,2.48 5.47,2.48 3.27,0 5.44,-2.49 2.18,-2.49 2.18,-7.6 0,-4.81 -2.19,-7.28 -2.18,-2.48 -5.43,-2.48 -3.3,0 -5.47,2.46 -2.17,2.47 -2.17,7.45 z m 24.92,12.96 V 19.34 h 3.93 v 3.63 q 1.22,-1.9 3.25,-3.06 2.03,-1.16 4.62,-1.16 2.88,0 4.72,1.2 1.84,1.19 2.6,3.34 3.08,-4.54 8.01,-4.54 3.86,0 5.93,2.14 2.08,2.13 2.08,6.58 v 17.79 h -4.37 V 28.93 q 0,-2.64 -0.43,-3.8 -0.43,-1.16 -1.55,-1.86 -1.13,-0.71 -2.64,-0.71 -2.73,0 -4.54,1.82 -1.81,1.82 -1.81,5.82 v 15.06 h -4.39 V 28.42 q 0,-2.93 -1.08,-4.4 -1.07,-1.46 -3.51,-1.46 -1.86,0 -3.43,0.98 -1.58,0.97 -2.28,2.85 -0.71,1.88 -0.71,5.42 v 13.45 z m 41.46,9.99 -0.49,-4.13 q 1.44,0.39 2.52,0.39 1.46,0 2.34,-0.48 0.88,-0.49 1.44,-1.37 0.41,-0.66 1.34,-3.27 0.12,-0.37 0.39,-1.08 L 236.3,19.34 h 4.74 l 5.4,15.01 q 1.05,2.86 1.88,6.01 0.75,-3.03 1.8,-5.91 l 5.54,-15.11 h 4.4 L 250.2,45.7 q -1.59,4.28 -2.47,5.89 -1.17,2.17 -2.69,3.18 -1.51,1.02 -3.61,1.02 -1.27,0 -2.83,-0.54 z m 25.15,-9.99 V 19.34 h 3.95 v 3.93 q 1.51,-2.76 2.8,-3.64 1.28,-0.88 2.82,-0.88 2.22,0 4.51,1.42 l -1.51,4.07 q -1.61,-0.95 -3.22,-0.95 -1.44,0 -2.59,0.87 -1.15,0.86 -1.64,2.4 -0.73,2.35 -0.73,5.13 v 13.57 z"
         id="path1"
         style="fill:#ffffff" />
    </g>
  </g>
</svg>
