<?xml version="1.0" encoding="UTF-8" standalone="no"?>
<svg
   viewBox="0 8.8599997 634.73999 95.406563"
   data-asc="0.9052734375"
   width="634.73999"
   height="95.406563"
   version="1.1"
   id="svg3"
   sodipodi:docname="student.svg"
   inkscape:version="1.4.2 (ebf0e940d0, 2025-05-08)"
   xmlns:inkscape="http://www.inkscape.org/namespaces/inkscape"
   xmlns:sodipodi="http://sodipodi.sourceforge.net/DTD/sodipodi-0.dtd"
   xmlns="http://www.w3.org/2000/svg"
   xmlns:svg="http://www.w3.org/2000/svg">
  <sodipodi:namedview
     id="namedview3"
     pagecolor="#ffffff"
     bordercolor="#000000"
     borderopacity="0.25"
     inkscape:showpageshadow="2"
     inkscape:pageopacity="0.0"
     inkscape:pagecheckerboard="0"
     inkscape:deskcolor="#d1d1d1"
     inkscape:zoom="2.8326559"
     inkscape:cx="317.54651"
     inkscape:cy="47.834966"
     inkscape:window-width="1920"
     inkscape:window-height="1052"
     inkscape:window-x="0"
     inkscape:window-y="0"
     inkscape:window-maximized="1"
     inkscape:current-layer="svg3" />
  <defs
     id="defs1" />
  <g
     fill="#000000"
     id="g3"
     style="fill:#ffffff">
    <g
       id="g1"
       style="fill:#ffffff">
      <path
         d="M 0,45.26 13.75,9.47 h 5.1 L 33.5,45.26 H 28.1 L 23.93,34.42 H 8.96 L 5.03,45.26 H 0 M 10.33,30.57 h 12.13 l -3.73,-9.92 q -1.71,-4.51 -2.54,-7.42 -0.69,3.44 -1.93,6.84 z M 36.72,55.2 V 19.34 h 4 v 3.37 q 1.42,-1.98 3.2,-2.97 1.78,-0.99 4.32,-0.99 3.32,0 5.86,1.71 2.54,1.71 3.83,4.82 1.3,3.11 1.3,6.82 0,3.98 -1.43,7.17 -1.43,3.19 -4.15,4.88 -2.72,1.7 -5.73,1.7 -2.19,0 -3.94,-0.93 -1.74,-0.93 -2.87,-2.34 V 55.2 H 36.72 M 40.7,32.45 q 0,5 2.02,7.39 2.03,2.4 4.91,2.4 2.93,0 5.02,-2.48 2.09,-2.48 2.09,-7.68 0,-4.96 -2.04,-7.42 -2.04,-2.47 -4.87,-2.47 -2.81,0 -4.97,2.63 -2.16,2.62 -2.16,7.63 z M 64.53,55.2 V 19.34 h 4 v 3.37 q 1.42,-1.98 3.2,-2.97 1.78,-0.99 4.32,-0.99 3.32,0 5.86,1.71 2.54,1.71 3.83,4.82 1.3,3.11 1.3,6.82 0,3.98 -1.43,7.17 -1.43,3.19 -4.15,4.88 -2.72,1.7 -5.73,1.7 -2.19,0 -3.94,-0.93 -1.75,-0.93 -2.87,-2.34 V 55.2 h -4.39 m 3.98,-22.75 q 0,5 2.02,7.39 2.03,2.4 4.91,2.4 2.93,0 5.02,-2.48 2.08,-2.48 2.08,-7.68 0,-4.96 -2.03,-7.42 -2.04,-2.47 -4.88,-2.47 -2.8,0 -4.96,2.63 -2.16,2.62 -2.16,7.63 z M 92.24,45.26 V 9.47 h 4.39 V 45.26 Z M 103.47,14.53 V 9.47 h 4.39 v 5.06 h -4.39 m 0,30.73 V 19.34 h 4.39 v 25.92 z m 28.83,-8.35 4.54,0.57 q -1.07,3.98 -3.98,6.17 -2.9,2.2 -7.42,2.2 -5.69,0 -9.02,-3.5 -3.33,-3.51 -3.33,-9.83 0,-6.54 3.37,-10.16 3.36,-3.61 8.74,-3.61 5.2,0 8.49,3.54 3.3,3.54 3.3,9.96 0,0.39 -0.03,1.17 h -19.33 q 0.24,4.28 2.41,6.55 2.18,2.27 5.42,2.27 2.42,0 4.13,-1.27 1.71,-1.27 2.71,-4.06 m -14.43,-7.1 h 14.48 q -0.29,-3.27 -1.66,-4.91 -2.1,-2.54 -5.45,-2.54 -3.02,0 -5.09,2.03 -2.06,2.03 -2.28,5.42 z m 41.31,15.45 v -3.27 q -2.47,3.86 -7.25,3.86 -3.1,0 -5.7,-1.71 -2.6,-1.71 -4.03,-4.77 -1.43,-3.07 -1.43,-7.05 0,-3.88 1.3,-7.04 1.29,-3.16 3.88,-4.85 2.59,-1.68 5.78,-1.68 2.35,0 4.18,0.99 1.83,0.99 2.98,2.57 V 9.47 h 4.37 v 35.79 h -4.08 M 145.29,32.32 q 0,4.98 2.1,7.45 2.1,2.47 4.95,2.47 2.88,0 4.9,-2.36 2.01,-2.36 2.01,-7.19 0,-5.32 -2.05,-7.81 -2.05,-2.49 -5.05,-2.49 -2.93,0 -4.9,2.39 -1.96,2.39 -1.96,7.54 z m 37.72,1.44 4.47,-0.39 q 0.31,2.69 1.47,4.41 1.16,1.72 3.6,2.78 2.45,1.07 5.5,1.07 2.71,0 4.78,-0.81 2.08,-0.81 3.09,-2.21 1.01,-1.4 1.01,-3.06 0,-1.69 -0.97,-2.95 -0.98,-1.25 -3.23,-2.11 -1.44,-0.56 -6.37,-1.74 -4.93,-1.19 -6.91,-2.24 -2.56,-1.34 -3.82,-3.33 -1.25,-1.99 -1.25,-4.45 0,-2.71 1.53,-5.07 1.54,-2.36 4.5,-3.58 2.95,-1.22 6.56,-1.22 3.98,0 7.02,1.28 3.04,1.29 4.68,3.78 1.63,2.49 1.75,5.64 l -4.54,0.34 q -0.36,-3.4 -2.47,-5.13 -2.12,-1.73 -6.24,-1.73 -4.3,0 -6.26,1.57 -1.97,1.58 -1.97,3.8 0,1.93 1.39,3.17 1.37,1.25 7.14,2.55 5.78,1.31 7.93,2.29 3.12,1.44 4.61,3.65 1.49,2.21 1.49,5.09 0,2.85 -1.64,5.38 -1.63,2.53 -4.7,3.93 -3.06,1.4 -6.89,1.4 -4.86,0 -8.15,-1.41 -3.28,-1.42 -5.15,-4.26 -1.86,-2.85 -1.96,-6.44 z m 51.32,2.01 4.32,0.56 q -0.71,4.47 -3.63,6.99 -2.92,2.53 -7.16,2.53 -5.33,0 -8.56,-3.48 -3.24,-3.48 -3.24,-9.97 0,-4.2 1.4,-7.35 1.39,-3.15 4.23,-4.73 2.85,-1.57 6.19,-1.57 4.22,0 6.91,2.14 2.69,2.13 3.44,6.06 l -4.27,0.66 q -0.61,-2.61 -2.16,-3.93 -1.55,-1.32 -3.75,-1.32 -3.32,0 -5.39,2.38 -2.08,2.38 -2.08,7.54 0,5.22 2,7.59 2,2.37 5.23,2.37 2.59,0 4.32,-1.59 1.73,-1.59 2.2,-4.88 z m 8.1,-21.24 V 9.47 h 4.4 v 5.06 h -4.4 m 0,30.73 V 19.34 h 4.4 v 25.92 z m 28.83,-8.35 4.55,0.57 q -1.08,3.98 -3.98,6.17 -2.91,2.2 -7.43,2.2 -5.68,0 -9.02,-3.5 -3.33,-3.51 -3.33,-9.83 0,-6.54 3.37,-10.16 3.37,-3.61 8.74,-3.61 5.2,0 8.5,3.54 3.29,3.54 3.29,9.96 0,0.39 -0.02,1.17 h -19.34 q 0.25,4.28 2.42,6.55 2.17,2.27 5.42,2.27 2.42,0 4.12,-1.27 1.71,-1.27 2.71,-4.06 m -14.42,-7.1 h 14.47 q -0.29,-3.27 -1.66,-4.91 -2.1,-2.54 -5.44,-2.54 -3.03,0 -5.09,2.03 -2.06,2.03 -2.28,5.42 z m 24.48,15.45 V 19.34 h 3.96 v 3.68 q 2.85,-4.27 8.25,-4.27 2.34,0 4.31,0.84 1.96,0.84 2.94,2.21 0.98,1.37 1.37,3.25 0.24,1.22 0.24,4.27 V 45.26 H 298 V 29.49 q 0,-2.68 -0.51,-4.01 -0.52,-1.33 -1.82,-2.13 -1.31,-0.79 -3.07,-0.79 -2.81,0 -4.84,1.78 -2.04,1.78 -2.04,6.76 v 14.16 z m 44.73,-9.49 4.32,0.56 q -0.71,4.47 -3.62,6.99 -2.92,2.53 -7.17,2.53 -5.32,0 -8.56,-3.48 -3.23,-3.48 -3.23,-9.97 0,-4.2 1.39,-7.35 1.39,-3.15 4.24,-4.73 2.84,-1.57 6.18,-1.57 4.23,0 6.91,2.14 2.69,2.13 3.45,6.06 l -4.28,0.66 q -0.61,-2.61 -2.16,-3.93 -1.55,-1.32 -3.74,-1.32 -3.32,0 -5.4,2.38 -2.08,2.38 -2.08,7.54 0,5.22 2.01,7.59 2,2.37 5.22,2.37 2.59,0 4.32,-1.59 1.74,-1.59 2.2,-4.88 z m 25.83,1.14 4.54,0.57 q -1.07,3.98 -3.98,6.17 -2.9,2.2 -7.42,2.2 -5.69,0 -9.02,-3.5 -3.33,-3.51 -3.33,-9.83 0,-6.54 3.37,-10.16 3.36,-3.61 8.74,-3.61 5.2,0 8.49,3.54 3.3,3.54 3.3,9.96 0,0.39 -0.03,1.17 h -19.33 q 0.24,4.28 2.41,6.55 2.18,2.27 5.42,2.27 2.42,0 4.13,-1.27 1.71,-1.27 2.71,-4.06 m -14.43,-7.1 h 14.48 q -0.29,-3.27 -1.66,-4.91 -2.1,-2.54 -5.45,-2.54 -3.02,0 -5.09,2.03 -2.06,2.03 -2.28,5.42 z m 36.62,7.71 4.35,-0.68 q 0.36,2.61 2.04,4 1.67,1.4 4.67,1.4 3.03,0 4.49,-1.24 1.47,-1.23 1.47,-2.89 0,-1.49 -1.3,-2.34 -0.9,-0.59 -4.49,-1.49 -4.83,-1.22 -6.7,-2.11 -1.87,-0.9 -2.83,-2.47 -0.97,-1.57 -0.97,-3.48 0,-1.73 0.8,-3.21 0.79,-1.48 2.16,-2.45 1.02,-0.76 2.79,-1.29 1.77,-0.52 3.8,-0.52 3.05,0 5.36,0.88 2.31,0.88 3.41,2.38 1.09,1.5 1.51,4.02 l -4.3,0.58 q -0.29,-2 -1.69,-3.12 -1.41,-1.13 -3.97,-1.13 -3.03,0 -4.32,1 -1.3,1.01 -1.3,2.35 0,0.85 0.54,1.54 0.54,0.7 1.68,1.17 0.66,0.24 3.89,1.12 4.66,1.25 6.5,2.04 1.85,0.79 2.9,2.31 1.05,1.51 1.05,3.76 0,2.19 -1.29,4.13 -1.28,1.95 -3.69,3.01 -2.42,1.06 -5.47,1.06 -5.06,0 -7.71,-2.1 -2.65,-2.1 -3.38,-6.23 z m 36.35,3.81 0.64,3.88 q -1.86,0.4 -3.32,0.4 -2.39,0 -3.71,-0.76 -1.32,-0.76 -1.86,-1.99 -0.53,-1.23 -0.53,-5.19 V 22.75 h -3.23 v -3.41 h 3.23 v -6.42 l 4.37,-2.64 v 9.06 h 4.41 v 3.41 h -4.41 v 15.17 q 0,1.87 0.23,2.41 0.23,0.54 0.75,0.86 0.53,0.31 1.51,0.31 0.73,0 1.92,-0.17 z m 21.29,3.93 v -3.8 q -3.02,4.39 -8.22,4.39 -2.3,0 -4.29,-0.88 -1.99,-0.88 -2.95,-2.21 -0.97,-1.33 -1.36,-3.26 -0.27,-1.29 -0.27,-4.1 V 19.34 h 4.4 v 14.38 q 0,3.44 0.27,4.63 0.41,1.74 1.75,2.73 1.35,0.99 3.33,0.99 1.97,0 3.71,-1.02 1.73,-1.01 2.45,-2.76 0.72,-1.74 0.72,-5.06 V 19.34 h 4.39 v 25.92 z m 27.64,0 v -3.27 q -2.47,3.86 -7.25,3.86 -3.1,0 -5.7,-1.71 -2.6,-1.71 -4.03,-4.77 -1.43,-3.07 -1.43,-7.05 0,-3.88 1.3,-7.04 1.29,-3.16 3.88,-4.85 2.59,-1.68 5.78,-1.68 2.35,0 4.18,0.99 1.83,0.99 2.98,2.57 V 9.47 h 4.37 v 35.79 h -4.08 M 445.46,32.32 q 0,4.98 2.1,7.45 2.1,2.47 4.95,2.47 2.89,0 4.9,-2.36 2.01,-2.36 2.01,-7.19 0,-5.32 -2.05,-7.81 -2.05,-2.49 -5.05,-2.49 -2.93,0 -4.9,2.39 -1.96,2.39 -1.96,7.54 z m 42.63,4.59 4.54,0.57 q -1.08,3.98 -3.98,6.17 -2.91,2.2 -7.42,2.2 -5.69,0 -9.03,-3.5 -3.33,-3.51 -3.33,-9.83 0,-6.54 3.37,-10.16 3.37,-3.61 8.74,-3.61 5.2,0 8.5,3.54 3.29,3.54 3.29,9.96 0,0.39 -0.02,1.17 h -19.34 q 0.25,4.28 2.42,6.55 2.17,2.27 5.42,2.27 2.42,0 4.13,-1.27 1.7,-1.27 2.71,-4.06 m -14.43,-7.1 h 14.47 q -0.29,-3.27 -1.66,-4.91 -2.09,-2.54 -5.44,-2.54 -3.03,0 -5.09,2.03 -2.06,2.03 -2.28,5.42 z m 24.48,15.45 V 19.34 h 3.96 v 3.68 q 2.86,-4.27 8.25,-4.27 2.35,0 4.31,0.84 1.97,0.84 2.94,2.21 0.98,1.37 1.37,3.25 0.24,1.22 0.24,4.27 v 15.94 h -4.39 V 29.49 q 0,-2.68 -0.51,-4.01 -0.52,-1.33 -1.82,-2.13 -1.31,-0.79 -3.07,-0.79 -2.8,0 -4.84,1.78 -2.04,1.78 -2.04,6.76 v 14.16 z m 37.41,-3.93 0.63,3.88 q -1.85,0.4 -3.32,0.4 -2.39,0 -3.71,-0.76 -1.32,-0.76 -1.86,-1.99 -0.53,-1.23 -0.53,-5.19 V 22.75 h -3.22 v -3.41 h 3.22 v -6.42 l 4.37,-2.64 v 9.06 h 4.42 v 3.41 h -4.42 v 15.17 q 0,1.87 0.23,2.41 0.23,0.54 0.76,0.86 0.52,0.31 1.5,0.31 0.73,0 1.93,-0.17 z m 35.1,0.74 q -2.44,2.07 -4.7,2.93 -2.25,0.85 -4.84,0.85 -4.27,0 -6.57,-2.09 -2.29,-2.09 -2.29,-5.33 0,-1.91 0.86,-3.48 0.87,-1.58 2.27,-2.53 1.41,-0.95 3.16,-1.44 1.3,-0.34 3.91,-0.66 5.32,-0.63 7.84,-1.51 0.02,-0.9 0.02,-1.15 0,-2.68 -1.24,-3.78 -1.69,-1.49 -5.01,-1.49 -3.1,0 -4.58,1.08 -1.47,1.09 -2.18,3.85 L 553,26.73 q 0.59,-2.76 1.93,-4.45 1.34,-1.7 3.88,-2.61 2.54,-0.92 5.89,-0.92 3.32,0 5.39,0.78 2.08,0.78 3.05,1.97 0.98,1.18 1.37,2.99 0.22,1.12 0.22,4.05 v 5.86 q 0,6.13 0.28,7.75 0.28,1.62 1.11,3.11 h -4.59 q -0.68,-1.36 -0.88,-3.19 m -0.36,-9.82 q -2.39,0.98 -7.18,1.66 -2.71,0.39 -3.83,0.88 -1.13,0.49 -1.74,1.43 -0.61,0.94 -0.61,2.09 0,1.75 1.33,2.93 1.33,1.17 3.9,1.17 2.54,0 4.51,-1.11 1.98,-1.11 2.91,-3.04 0.71,-1.49 0.71,-4.4 z m 20.85,9.08 0.63,3.88 q -1.85,0.4 -3.32,0.4 -2.39,0 -3.71,-0.76 -1.32,-0.76 -1.85,-1.99 -0.54,-1.23 -0.54,-5.19 V 22.75 h -3.22 v -3.41 h 3.22 v -6.42 l 4.37,-2.64 v 9.06 h 4.42 v 3.41 h -4.42 v 15.17 q 0,1.87 0.23,2.41 0.23,0.54 0.76,0.86 0.52,0.31 1.5,0.31 0.73,0 1.93,-0.17 z"
         id="path1"
         style="fill:#ffffff" />
    </g>
    <g
       transform="translate(0,48.476562)"
       id="g2"
       style="fill:#ffffff">
      <path
         d="m 23.41,9.47 h 4.74 v 20.68 q 0,5.4 -1.22,8.57 -1.22,3.17 -4.41,5.16 -3.18,1.99 -8.36,1.99 -5.03,0 -8.23,-1.73 Q 2.73,42.41 1.37,39.12 0,35.84 0,30.15 V 9.47 h 4.74 v 20.66 q 0,4.66 0.86,6.87 0.87,2.21 2.98,3.41 2.11,1.19 5.17,1.19 5.22,0 7.44,-2.37 2.22,-2.36 2.22,-9.1 z M 35.5,45.26 V 9.47 h 4.39 v 20.41 l 10.4,-10.54 h 5.69 l -9.91,9.62 10.91,16.3 h -5.42 l -8.57,-13.25 -3.1,2.98 v 10.27 z m 24.92,0 V 19.34 h 3.96 v 3.93 q 1.51,-2.76 2.8,-3.64 1.28,-0.88 2.82,-0.88 2.22,0 4.51,1.42 L 73,24.24 q -1.61,-0.95 -3.22,-0.95 -1.45,0 -2.59,0.87 -1.15,0.86 -1.64,2.4 -0.73,2.35 -0.73,5.13 v 13.57 z m 33.62,-3.19 q -2.44,2.07 -4.7,2.93 -2.26,0.85 -4.84,0.85 -4.28,0 -6.57,-2.09 -2.3,-2.09 -2.3,-5.33 0,-1.91 0.87,-3.48 0.87,-1.58 2.27,-2.53 1.41,-0.95 3.16,-1.44 1.3,-0.34 3.91,-0.66 5.32,-0.63 7.84,-1.51 0.02,-0.9 0.02,-1.15 0,-2.68 -1.24,-3.78 -1.69,-1.49 -5.01,-1.49 -3.1,0 -4.58,1.08 -1.47,1.09 -2.18,3.85 l -4.3,-0.59 q 0.59,-2.76 1.93,-4.45 1.34,-1.7 3.88,-2.61 2.54,-0.92 5.89,-0.92 3.32,0 5.39,0.78 2.08,0.78 3.05,1.97 0.98,1.18 1.37,2.99 0.22,1.12 0.22,4.05 v 5.86 q 0,6.13 0.28,7.75 0.28,1.62 1.11,3.11 H 94.92 Q 94.24,43.9 94.04,42.07 m -0.36,-9.82 q -2.4,0.98 -7.18,1.66 -2.71,0.39 -3.83,0.88 -1.13,0.49 -1.74,1.43 -0.61,0.94 -0.61,2.09 0,1.75 1.33,2.93 1.33,1.17 3.9,1.17 2.54,0 4.51,-1.11 1.98,-1.11 2.91,-3.04 0.71,-1.49 0.71,-4.4 z M 104.96,14.53 V 9.47 h 4.39 v 5.06 h -4.39 m 0,30.73 V 19.34 h 4.39 v 25.92 z m 11.08,0 V 19.34 H 120 v 3.68 q 2.85,-4.27 8.25,-4.27 2.34,0 4.31,0.84 1.96,0.84 2.94,2.21 0.97,1.37 1.37,3.25 0.24,1.22 0.24,4.27 v 15.94 h -4.4 V 29.49 q 0,-2.68 -0.51,-4.01 -0.51,-1.33 -1.82,-2.13 -1.3,-0.79 -3.06,-0.79 -2.81,0 -4.85,1.78 -2.04,1.78 -2.04,6.76 V 45.26 Z M 143.87,14.53 V 9.47 h 4.4 v 5.06 h -4.4 m 0,30.73 V 19.34 h 4.4 v 25.92 z m 28.01,-3.19 q -2.45,2.07 -4.7,2.93 -2.26,0.85 -4.85,0.85 -4.27,0 -6.57,-2.09 -2.29,-2.09 -2.29,-5.33 0,-1.91 0.86,-3.48 0.87,-1.58 2.27,-2.53 1.41,-0.95 3.17,-1.44 1.29,-0.34 3.9,-0.66 5.32,-0.63 7.84,-1.51 0.02,-0.9 0.02,-1.15 0,-2.68 -1.24,-3.78 -1.69,-1.49 -5.01,-1.49 -3.1,0 -4.57,1.08 -1.48,1.09 -2.19,3.85 l -4.3,-0.59 q 0.59,-2.76 1.93,-4.45 1.35,-1.7 3.88,-2.61 2.54,-0.92 5.89,-0.92 3.32,0 5.39,0.78 2.08,0.78 3.06,1.97 0.97,1.18 1.36,2.99 0.22,1.12 0.22,4.05 v 5.86 q 0,6.13 0.28,7.75 0.28,1.62 1.11,3.11 h -4.59 q -0.68,-1.36 -0.87,-3.19 m -0.37,-9.82 q -2.39,0.98 -7.18,1.66 -2.71,0.39 -3.83,0.88 -1.12,0.49 -1.74,1.43 -0.61,0.94 -0.61,2.09 0,1.75 1.33,2.93 1.34,1.17 3.9,1.17 2.54,0 4.52,-1.11 1.97,-1.11 2.9,-3.04 0.71,-1.49 0.71,-4.4 z m 11.25,13.01 V 19.34 h 3.96 v 3.68 q 2.86,-4.27 8.25,-4.27 2.34,0 4.31,0.84 1.97,0.84 2.94,2.21 0.98,1.37 1.37,3.25 0.24,1.22 0.24,4.27 v 15.94 h -4.39 V 29.49 q 0,-2.68 -0.51,-4.01 -0.52,-1.33 -1.82,-2.13 -1.31,-0.79 -3.07,-0.79 -2.8,0 -4.84,1.78 -2.04,1.78 -2.04,6.76 v 14.16 z m 67.8,-12.55 4.74,1.2 q -1.49,5.84 -5.36,8.9 -3.87,3.06 -9.46,3.06 -5.79,0 -9.41,-2.35 -3.63,-2.36 -5.52,-6.83 -1.89,-4.46 -1.89,-9.59 0,-5.59 2.13,-9.75 2.14,-4.17 6.08,-6.33 3.95,-2.16 8.68,-2.16 5.37,0 9.03,2.74 3.67,2.73 5.11,7.69 l -4.67,1.1 q -1.24,-3.91 -3.61,-5.69 -2.37,-1.78 -5.96,-1.78 -4.12,0 -6.89,1.97 -2.77,1.98 -3.9,5.31 -1.12,3.34 -1.12,6.88 0,4.56 1.33,7.97 1.33,3.4 4.14,5.09 2.81,1.68 6.08,1.68 3.98,0 6.74,-2.29 2.75,-2.3 3.73,-6.82 z m 26.93,9.36 q -2.44,2.07 -4.7,2.93 -2.26,0.85 -4.85,0.85 -4.27,0 -6.56,-2.09 -2.3,-2.09 -2.3,-5.33 0,-1.91 0.87,-3.48 0.87,-1.58 2.27,-2.53 1.4,-0.95 3.16,-1.44 1.29,-0.34 3.91,-0.66 5.32,-0.63 7.83,-1.51 0.03,-0.9 0.03,-1.15 0,-2.68 -1.25,-3.78 -1.68,-1.49 -5,-1.49 -3.1,0 -4.58,1.08 -1.48,1.09 -2.18,3.85 l -4.3,-0.59 q 0.58,-2.76 1.93,-4.45 1.34,-1.7 3.88,-2.61 2.54,-0.92 5.88,-0.92 3.32,0 5.4,0.78 2.07,0.78 3.05,1.97 0.98,1.18 1.37,2.99 0.22,1.12 0.22,4.05 v 5.86 q 0,6.13 0.28,7.75 0.28,1.62 1.11,3.11 h -4.59 q -0.68,-1.36 -0.88,-3.19 m -0.37,-9.82 q -2.39,0.98 -7.17,1.66 -2.71,0.39 -3.84,0.88 -1.12,0.49 -1.73,1.43 -0.61,0.94 -0.61,2.09 0,1.75 1.33,2.93 1.33,1.17 3.89,1.17 2.54,0 4.52,-1.11 1.98,-1.11 2.91,-3.04 0.7,-1.49 0.7,-4.4 z m 20.85,9.08 0.64,3.88 q -1.86,0.4 -3.32,0.4 -2.39,0 -3.71,-0.76 -1.32,-0.76 -1.86,-1.99 -0.54,-1.23 -0.54,-5.19 V 22.75 h -3.22 v -3.41 h 3.22 v -6.42 l 4.37,-2.64 v 9.06 h 4.42 v 3.41 h -4.42 v 15.17 q 0,1.87 0.24,2.41 0.23,0.54 0.75,0.86 0.53,0.31 1.5,0.31 0.74,0 1.93,-0.17 z m 4.3,3.93 V 9.47 h 4.4 v 12.84 q 3.07,-3.56 7.76,-3.56 2.88,0 5,1.14 2.13,1.13 3.04,3.13 0.92,2 0.92,5.81 v 16.43 h -4.4 V 28.83 q 0,-3.29 -1.42,-4.79 -1.43,-1.51 -4.04,-1.51 -1.96,0 -3.68,1.02 -1.72,1.01 -2.45,2.74 -0.73,1.74 -0.73,4.79 V 45.26 Z M 328.44,32.3 q 0,-7.2 4.01,-10.67 3.34,-2.88 8.15,-2.88 5.35,0 8.74,3.5 3.39,3.51 3.39,9.68 0,5.01 -1.5,7.88 -1.5,2.87 -4.37,4.45 -2.87,1.59 -6.26,1.59 -5.44,0 -8.8,-3.49 -3.36,-3.49 -3.36,-10.06 m 4.52,0 q 0,4.98 2.17,7.46 2.17,2.48 5.47,2.48 3.27,0 5.44,-2.49 2.18,-2.49 2.18,-7.6 0,-4.81 -2.19,-7.28 -2.18,-2.48 -5.43,-2.48 -3.3,0 -5.47,2.46 -2.17,2.47 -2.17,7.45 z m 24.83,12.96 V 9.47 h 4.39 V 45.26 Z M 369.02,14.53 V 9.47 h 4.39 v 5.06 h -4.39 m 0,30.73 V 19.34 h 4.39 v 25.92 z m 28,-9.49 4.32,0.56 q -0.71,4.47 -3.62,6.99 -2.92,2.53 -7.17,2.53 -5.32,0 -8.56,-3.48 -3.23,-3.48 -3.23,-9.97 0,-4.2 1.39,-7.35 1.39,-3.15 4.24,-4.73 2.84,-1.57 6.19,-1.57 4.22,0 6.91,2.14 2.68,2.13 3.44,6.06 l -4.27,0.66 q -0.62,-2.61 -2.17,-3.93 -1.55,-1.32 -3.74,-1.32 -3.32,0 -5.4,2.38 -2.07,2.38 -2.07,7.54 0,5.22 2,7.59 2,2.37 5.22,2.37 2.59,0 4.32,-1.59 1.74,-1.59 2.2,-4.88 z m 46.02,-26.3 h 4.74 v 20.68 q 0,5.4 -1.22,8.57 -1.22,3.17 -4.41,5.16 -3.19,1.99 -8.36,1.99 -5.03,0 -8.23,-1.73 -3.2,-1.73 -4.56,-5.02 -1.37,-3.28 -1.37,-8.97 V 9.47 h 4.74 v 20.66 q 0,4.66 0.86,6.87 0.87,2.21 2.98,3.41 2.11,1.19 5.16,1.19 5.23,0 7.45,-2.37 2.22,-2.36 2.22,-9.1 z M 455.1,45.26 V 19.34 h 3.96 v 3.68 q 2.85,-4.27 8.25,-4.27 2.34,0 4.31,0.84 1.96,0.84 2.94,2.21 0.98,1.37 1.37,3.25 0.24,1.22 0.24,4.27 v 15.94 h -4.39 V 29.49 q 0,-2.68 -0.52,-4.01 -0.51,-1.33 -1.81,-2.13 -1.31,-0.79 -3.07,-0.79 -2.81,0 -4.84,1.78 -2.04,1.78 -2.04,6.76 V 45.26 Z M 482.93,14.53 V 9.47 h 4.4 v 5.06 h -4.4 m 0,30.73 V 19.34 h 4.4 v 25.92 z m 18.29,0 -9.86,-25.92 H 496 l 5.56,15.52 q 0.91,2.52 1.66,5.23 0.59,-2.05 1.64,-4.93 l 5.76,-15.82 h 4.52 l -9.82,25.92 z m 35.55,-8.35 4.54,0.57 q -1.08,3.98 -3.98,6.17 -2.91,2.2 -7.42,2.2 -5.69,0 -9.02,-3.5 -3.34,-3.51 -3.34,-9.83 0,-6.54 3.37,-10.16 3.37,-3.61 8.74,-3.61 5.2,0 8.5,3.54 3.3,3.54 3.3,9.96 0,0.39 -0.03,1.17 h -19.34 q 0.25,4.28 2.42,6.55 2.17,2.27 5.42,2.27 2.42,0 4.13,-1.27 1.71,-1.27 2.71,-4.06 m -14.43,-7.1 h 14.48 q -0.3,-3.27 -1.66,-4.91 -2.1,-2.54 -5.45,-2.54 -3.03,0 -5.09,2.03 -2.06,2.03 -2.28,5.42 z m 24.44,15.45 V 19.34 h 3.95 v 3.93 q 1.52,-2.76 2.8,-3.64 1.28,-0.88 2.82,-0.88 2.22,0 4.51,1.42 l -1.51,4.07 q -1.61,-0.95 -3.22,-0.95 -1.44,0 -2.59,0.87 -1.15,0.86 -1.64,2.4 -0.73,2.35 -0.73,5.13 v 13.57 z m 14.94,-7.74 4.34,-0.68 q 0.37,2.61 2.04,4 1.68,1.4 4.68,1.4 3.03,0 4.49,-1.24 1.47,-1.23 1.47,-2.89 0,-1.49 -1.3,-2.34 -0.9,-0.59 -4.49,-1.49 -4.83,-1.22 -6.7,-2.11 -1.87,-0.9 -2.83,-2.47 -0.97,-1.57 -0.97,-3.48 0,-1.73 0.79,-3.21 0.8,-1.48 2.17,-2.45 1.02,-0.76 2.79,-1.29 1.77,-0.52 3.8,-0.52 3.05,0 5.36,0.88 2.3,0.88 3.4,2.38 1.1,1.5 1.52,4.02 l -4.3,0.58 q -0.29,-2 -1.7,-3.12 -1.4,-1.13 -3.97,-1.13 -3.02,0 -4.32,1 -1.29,1.01 -1.29,2.35 0,0.85 0.54,1.54 0.53,0.7 1.68,1.17 0.66,0.24 3.88,1.12 4.67,1.25 6.51,2.04 1.84,0.79 2.89,2.31 1.05,1.51 1.05,3.76 0,2.19 -1.28,4.13 -1.28,1.95 -3.7,3.01 -2.42,1.06 -5.47,1.06 -5.05,0 -7.7,-2.1 -2.65,-2.1 -3.38,-6.23 z M 588.5,14.53 V 9.47 h 4.4 v 5.06 h -4.4 m 0,30.73 V 19.34 h 4.4 v 25.92 z m 20.68,-3.93 0.63,3.88 q -1.85,0.4 -3.32,0.4 -2.39,0 -3.71,-0.76 -1.32,-0.76 -1.85,-1.99 -0.54,-1.23 -0.54,-5.19 V 22.75 h -3.22 v -3.41 h 3.22 v -6.42 l 4.37,-2.64 v 9.06 h 4.42 v 3.41 h -4.42 v 15.17 q 0,1.87 0.23,2.41 0.23,0.54 0.76,0.86 0.52,0.31 1.5,0.31 0.73,0 1.93,-0.17 z m 4.1,13.92 -0.49,-4.13 q 1.44,0.39 2.52,0.39 1.46,0 2.34,-0.48 0.88,-0.49 1.44,-1.37 0.42,-0.66 1.34,-3.27 0.13,-0.37 0.4,-1.08 l -9.84,-25.97 h 4.73 l 5.4,15.01 q 1.05,2.86 1.88,6.01 0.75,-3.03 1.8,-5.91 l 5.55,-15.11 h 4.39 l -9.86,26.36 q -1.59,4.28 -2.47,5.89 -1.17,2.17 -2.68,3.18 -1.52,1.02 -3.62,1.02 -1.27,0 -2.83,-0.54 z"
         id="path2"
         style="fill:#ffffff" />
    </g>
  </g>
</svg>
