<?xml version="1.0" encoding="UTF-8" standalone="no"?>
<!-- Created with Inkscape (http://www.inkscape.org/) -->

<svg
   version="1.1"
   id="svg55"
   width="1000"
   height="1000"
   viewBox="0 0 1000 1000"
   sodipodi:docname="hamster_short_blue.svg"
   inkscape:version="1.3.2 (091e20ef0f, 2023-11-25)"
   xmlns:inkscape="http://www.inkscape.org/namespaces/inkscape"
   xmlns:sodipodi="http://sodipodi.sourceforge.net/DTD/sodipodi-0.dtd"
   xmlns="http://www.w3.org/2000/svg"
   xmlns:svg="http://www.w3.org/2000/svg">
  <defs
     id="defs59">
    <linearGradient
       id="linearGradient3528"
       inkscape:swatch="solid">
      <stop
         style="stop-color:#000000;stop-opacity:1;"
         offset="0"
         id="stop3526" />
    </linearGradient>
  </defs>
  <sodipodi:namedview
     id="namedview57"
     pagecolor="#ffffff"
     bordercolor="#000000"
     borderopacity="0.25"
     inkscape:showpageshadow="2"
     inkscape:pageopacity="0.0"
     inkscape:pagecheckerboard="0"
     inkscape:deskcolor="#d1d1d1"
     showgrid="false"
     inkscape:zoom="0.32136556"
     inkscape:cx="446.53197"
     inkscape:cy="921.06944"
     inkscape:window-width="1920"
     inkscape:window-height="996"
     inkscape:window-x="0"
     inkscape:window-y="0"
     inkscape:window-maximized="1"
     inkscape:current-layer="layer6" />
  <g
     inkscape:groupmode="layer"
     id="layer3"
     inkscape:label="Layer 2"
     style="display:inline">
    <path
       sodipodi:type="spiral"
       style="fill:none;fill-rule:evenodd;stroke:#000000"
       id="path8127"
       sodipodi:cx="975.06671"
       sodipodi:cy="666.93036"
       sodipodi:expansion="1"
       sodipodi:revolution="3.0055726"
       sodipodi:radius="230.46182"
       sodipodi:argument="-18.134464"
       sodipodi:t0="0.73546028"
       d="M 898.79221,818.29393 C 807.81323,780.37448 768.62868,671.25977 806.58428,582.02939 849.24339,481.74145 970.02284,438.70653 1068.5941,481.32906 c 109.5997,47.39124 156.4877,179.84555 109.1928,287.7552 -8.6858,19.8177 -20.2183,38.36836 -34.1103,54.95553"
       transform="matrix(0.96039737,0,0,1.0509121,-379.90109,-112.81884)" />
    <path
       style="opacity:1;fill:none;fill-opacity:1;fill-rule:nonzero;stroke:#000000;stroke-width:1;stroke-linecap:butt;stroke-linejoin:bevel;stroke-dasharray:none;stroke-opacity:1"
       d="m 751.15625,695.4732 c -93.7258,295.18202 -457.85543,315.6509 -457.85543,315.6509"
       id="path8203" />
    <path
       style="opacity:1;fill:none;fill-opacity:1;fill-rule:nonzero;stroke:#000000;stroke-width:6;stroke-linecap:butt;stroke-linejoin:bevel;stroke-dasharray:none;stroke-opacity:1"
       d="M 717.86135,719.27738 C 576.93372,982.08832 241.75453,981.32662 241.75453,981.32662"
       id="path8272" />
    <path
       style="opacity:1;fill:none;fill-opacity:1;fill-rule:nonzero;stroke:#000000;stroke-width:4.01945;stroke-linecap:butt;stroke-linejoin:bevel;stroke-dasharray:none;stroke-opacity:1"
       d="M 818.38525,997.99442 H 226.09627"
       id="path8313" />
    <path
       style="opacity:1;fill:none;fill-opacity:1;fill-rule:nonzero;stroke:#000000;stroke-width:20;stroke-linecap:butt;stroke-linejoin:bevel;stroke-dasharray:none;stroke-opacity:1"
       d="m 235.93431,996.31112 c -101.26685,-528.95761 86.18454,-624.83793 86.18454,-624.83793 137.62587,-113.11718 317.5361,-59.25187 317.5361,-59.25187 221.1513,36.62713 199.4086,229.11344 199.4086,229.11344"
       id="path12379" />
    <path
       style="opacity:1;fill:none;fill-opacity:1;fill-rule:nonzero;stroke:#000000;stroke-width:19.1438;stroke-linecap:butt;stroke-linejoin:bevel;stroke-dasharray:none;stroke-opacity:1"
       d="m 839.58725,535.49767 c 1.8046,95.92416 -25.2642,157.5897 -25.2642,157.5897"
       id="path16011" />
    <path
       style="opacity:1;fill:none;fill-opacity:1;fill-rule:nonzero;stroke:#000000;stroke-width:20;stroke-linecap:butt;stroke-linejoin:bevel;stroke-dasharray:none;stroke-opacity:1"
       d="m 823.71575,663.47718 c -30.0559,70.98329 -19.8242,208.47355 -19.8242,208.47355 4.4765,125.33989 4.4765,125.33989 4.4765,125.33989"
       id="path16013" />
    <path
       style="opacity:1;fill:#000000;fill-opacity:1;fill-rule:nonzero;stroke:none;stroke-width:1.08734;stroke-linecap:butt;stroke-linejoin:bevel;stroke-dasharray:none;stroke-opacity:1"
       d="m 743.11415,641.90001 c -0.9921,3.17369 -1.2123,6.61483 -2.0069,9.87628 -4.8108,23.24619 -13.1866,45.70844 -24.5834,66.51753 -0.4831,1.67878 1.7982,2.00303 2.833,2.72524 -23.6729,44.05978 -54.9024,83.99148 -91.909,117.63617 -54.09004,49.4631 -119.81148,84.97839 -188.90808,108.61079 -38.31906,13.1393 -77.83049,22.5342 -117.83856,28.8933 -1.93995,0.521 -0.79651,3.086 -1.12402,4.556 0.0283,5.0851 -0.21319,10.2194 -0.0179,15.2742 0.82021,1.4679 3.02413,0.4546 4.43595,0.754 20.37137,-0.02 40.74748,0.039 61.11589,-0.029 66.64307,-15.7849 131.59354,-40.5608 189.62337,-77.2419 46.79495,-29.50724 88.73405,-67.21588 120.99915,-112.28905 20.5715,-28.6443 37.2112,-60.10724 49.3551,-93.21128 0.4505,-1.47392 -2.1456,-0.94212 -0.7281,-2.23854 10.5157,-21.76996 17.9393,-45.05315 21.7341,-68.93787 -0.2763,-1.98469 -2.8729,-0.87999 -4.2484,-1.16485 -6.0944,0.0676 -12.24,-0.13423 -18.3028,0.0998 l -0.2528,0.0998 z"
       id="path16824" />
    <path
       style="opacity:1;fill:#000000;fill-opacity:1;fill-rule:nonzero;stroke:none;stroke-width:1.18607;stroke-linecap:butt;stroke-linejoin:bevel;stroke-dasharray:none;stroke-opacity:1"
       d="m 384.43176,613.78929 c -0.77645,1.8617 0.59807,3.95414 0.72861,5.90849 6.45923,30.20502 18.68038,59.17987 36.31425,84.07077 16.04866,22.31001 36.52316,41.33478 60.34114,54.08408 20.3646,10.98037 42.1996,18.67984 64.27149,24.91399 30.14297,8.28321 61.2123,12.70301 92.337,13.89118 14.1359,0.0845 28.2856,0.18915 42.4115,-0.41693 5.2229,-0.47698 10.5149,-0.73123 15.6865,-1.43446 2.1515,-2.07509 3.6737,-4.94731 5.5558,-7.35164 0.9158,-0.77388 1.9053,-3.05678 0.041,-3.23046 -22.1983,2.22894 -44.5935,2.69095 -66.9016,1.46833 -49.3247,-2.85583 -98.56309,-13.60112 -143.49725,-35.57905 -17.12213,-8.45012 -32.52853,-20.51127 -45.50517,-34.96362 -19.69763,-21.61901 -33.76552,-48.41628 -42.39897,-76.77369 -2.48463,-7.90711 -4.23755,-16.03027 -6.07236,-24.08156 -1.17004,-1.31344 -3.34538,-0.3585 -4.92539,-0.68812 -2.77189,0.14742 -5.70323,-0.46829 -8.38583,0.18269 z"
       id="path17654" />
    <path
       style="opacity:1;fill:#000000;fill-opacity:1;fill-rule:nonzero;stroke:none;stroke-width:2.21982;stroke-linecap:butt;stroke-linejoin:bevel;stroke-dasharray:none;stroke-opacity:1"
       d="m 564.50642,376.17773 c -20.34354,-0.40485 -40.43147,4.57631 -59.42135,11.52507 -29.46443,11.09431 -55.86566,29.87564 -76.25449,53.84565 -35.01277,40.37584 -51.79226,95.30696 -47.43406,148.38949 0.7236,8.02662 1.1994,16.23799 3.37282,23.99567 2.12855,2.73677 6.2044,0.93733 9.13833,1.41014 1.53932,0.17455 3.99516,-0.11323 3.12162,-2.30761 -4.98527,-26.84508 -4.38304,-54.6511 1.26491,-81.29438 10.50376,-48.53567 40.5438,-93.04143 83.41969,-118.50468 21.41569,-12.75029 45.80768,-20.86711 70.74232,-22.65934 15.65538,-0.40643 31.38674,-0.8103 46.66984,3.06373 38.842,8.56749 73.7577,31.97036 98.1457,63.15429 28.3859,35.86138 44.6273,80.75586 48.0356,126.22438 0.3806,16.80903 0.9108,33.85808 -0.9778,50.58306 -0.1835,2.88083 -1.3339,5.76865 -1.0681,8.60384 6.1922,0.87579 12.7591,0.10288 19.0907,0.36527 4.0168,1.33707 4.281,-2.53672 4.3898,-5.44441 6.1304,-47.14473 -0.3392,-96.20093 -20.3716,-139.45818 -19.085,-42.29176 -51.0979,-79.50907 -92.6286,-100.94159 -21.32,-11.26719 -44.8668,-18.6961 -68.9741,-20.37806 -6.75023,-0.24632 -13.5078,-0.17892 -20.26123,-0.17234 z"
       id="path17656" />
    <path
       style="opacity:1;fill:#000000;fill-opacity:1;fill-rule:nonzero;stroke:none;stroke-width:2.21982;stroke-linecap:butt;stroke-linejoin:bevel;stroke-dasharray:none;stroke-opacity:1"
       d="m 310.20271,977.79322 c -21.4774,3.1051 -43.16815,4.7395 -64.81808,5.9972 -2.52477,-0.042 -2.12118,2.6571 -1.48169,4.2023 0.0797,1.8667 1.25203,4.4601 0.39346,6.0589 -2.39354,0.125 -1.32507,2.9818 0.71537,2.2535 24.66176,0.34 49.32753,0.2294 73.99109,0.3284 2.25937,-1.898 0.51031,-6.0999 1.16952,-8.8869 -0.26008,-3.6407 0.80185,-7.6555 -0.6254,-11.0579 -3.0756,-0.1292 -6.24945,0.8271 -9.34427,1.1045 z"
       id="path17658" />
    <path
       style="opacity:1;fill:#000000;fill-opacity:1;fill-rule:nonzero;stroke:#000000;stroke-width:4;stroke-linecap:butt;stroke-linejoin:bevel;stroke-dasharray:none;stroke-opacity:1"
       d="m 231.40293,997.51772 19.73152,-3.6779"
       id="path17664" />
    <path
       style="opacity:1;fill:#000000;fill-opacity:1;fill-rule:nonzero;stroke:#000000;stroke-width:1;stroke-linecap:butt;stroke-linejoin:bevel;stroke-dasharray:none;stroke-opacity:1"
       d="m 744.39835,713.29968 3.2868,-8.40615"
       id="path17668" />
    <path
       style="opacity:1;fill:#000000;fill-opacity:1;fill-rule:nonzero;stroke:#000000;stroke-width:1.02751;stroke-linecap:butt;stroke-linejoin:bevel;stroke-dasharray:none;stroke-opacity:1"
       d="m 814.00155,661.733 c 5.5784,-13.66323 5.5784,-13.66323 5.5784,-13.66323"
       id="path17676" />
    <path
       style="display:inline;opacity:1;fill:#000000;fill-opacity:1;fill-rule:nonzero;stroke:#000000;stroke-width:2;stroke-linecap:butt;stroke-linejoin:bevel;stroke-dasharray:none;stroke-opacity:1"
       d="M 715.72015,718.61769 C 726.20605,702.015 726.20605,702.015 726.20605,702.015"
       id="path17674" />
    <path
       style="display:inline;opacity:1;fill:#323232;fill-opacity:1;fill-rule:nonzero;stroke:#000000;stroke-width:9.8953;stroke-linecap:butt;stroke-linejoin:bevel;stroke-dasharray:none;stroke-opacity:1"
       d="m 531.22862,309.84405 c -27.00057,-0.65193 -53.951,2.46221 -80.15439,8.9651 -42.90977,9.89047 -83.474,29.30094 -118.24468,56.30883 -26.82949,17.51249 -47.63056,42.85942 -62.92337,70.7738 -30.91725,56.75105 -44.39507,121.26388 -50.66748,185.07366 -10.4343,116.0633 2.48423,232.86254 23.02019,347.12038 7.06288,1.6053 15.26358,-0.2617 22.76498,-0.3343 103.15783,-8.2883 206.01434,-37.3936 293.91745,-92.96088 32.30243,-20.20723 61.68993,-44.77492 87.91913,-72.37715 4.6203,-5.05078 10.2509,-9.47885 14.2807,-14.89364 -6.0968,-2.15581 -13.9787,-0.71944 -20.7473,-1.51522 C 585.74305,793.77953 530.34422,783.1203 481.73474,757.1192 434.10593,731.11826 401.48845,682.58379 388.36906,630.54646 374.30728,577.2502 380.4267,518.37604 408.4721,470.55697 c 30.4549,-54.41152 89.54821,-91.42051 151.8027,-94.34486 52.82745,-3.33372 105.68625,18.99675 142.19465,57.05837 37.463,38.44506 59.9528,90.55419 64.8892,143.69405 1.6696,33.94753 1.2112,68.66099 -10.139,101.03638 -11.4752,35.40093 -24.6389,70.45362 -44.2588,102.22795 -43.3512,73.17411 -111.3688,129.34355 -187.32123,166.32296 -41.33443,20.6858 -85.31475,35.6419 -129.95917,47.4419 0.0241,4.3628 10.89488,0.826 15.10965,1.9678 129.02475,0.037 258.04955,0.075 387.07425,0.1117 2.2265,-4.2641 -0.1802,-10.8387 0.344,-15.9677 -1.7659,-55.9186 -4.7937,-111.8136 -5.3774,-167.7601 0.6465,-47.36323 3.4315,-95.40846 17.7871,-140.84566 17.8944,-47.22943 20.9576,-98.86104 19.0969,-148.96519 -0.7133,-56.06823 -24.5031,-112.60899 -68.2293,-148.57596 -35.3289,-29.88108 -80.4555,-44.77338 -125.3178,-53.03813 -27.6039,-6.43333 -55.7051,-11.37738 -84.15261,-10.98924 -6.9284,-0.095 -13.85768,-0.0983 -20.78662,-0.0872 z"
       id="path22399" />
  </g>
  <g
     inkscape:groupmode="layer"
     id="layer6"
     inkscape:label="Layer 3"
     style="display:inline;opacity:1;stroke:#000000;stroke-width:10;stroke-dasharray:none;stroke-opacity:1">
    <path
       style="opacity:1;fill:none;fill-opacity:1;fill-rule:nonzero;stroke:#000000;stroke-width:10;stroke-linecap:butt;stroke-linejoin:bevel;stroke-dasharray:none;stroke-opacity:1"
       d="M 729.01295,691.20058 C 604.36545,652.7541 570.77533,386.05689 570.77533,386.05689"
       id="path18522" />
    <path
       style="opacity:1;fill:none;fill-opacity:1;fill-rule:nonzero;stroke:#000000;stroke-width:10.1263;stroke-linecap:butt;stroke-linejoin:bevel;stroke-dasharray:none;stroke-opacity:1"
       d="m 572.34411,398.49966 c 0,0 20.33714,254.34827 -145.61484,298.11599 67.92649,9.49678 94.36492,-2.47743 94.36492,-2.47743 14.64285,-0.82576 21.96422,15.69034 21.96422,15.69034 12.78791,38.27893 -7.75356,61.91281 -7.75356,61.91281"
       id="path18525" />
    <rect
       style="opacity:1;fill:#000000;fill-opacity:1;fill-rule:nonzero;stroke:none;stroke-width:10;stroke-linecap:butt;stroke-linejoin:bevel;stroke-dasharray:none;stroke-opacity:1"
       id="rect18529"
       width="70.105576"
       height="26.600569"
       x="664.52747"
       y="557.97736" />
    <rect
       style="opacity:1;fill:#000000;fill-opacity:1;fill-rule:nonzero;stroke:none;stroke-width:10.4658;stroke-linecap:butt;stroke-linejoin:bevel;stroke-dasharray:none;stroke-opacity:1"
       id="rect18531"
       width="71.548607"
       height="27.685001"
       x="456.09711"
       y="558.10492" />
    <path
       style="opacity:1;fill:#985b40;fill-opacity:1;fill-rule:nonzero;stroke:#000000;stroke-width:4;stroke-linecap:butt;stroke-linejoin:bevel;stroke-dasharray:none;stroke-opacity:1"
       d="m 522.45621,699.30129 c -13.62,2.71144 -27.33275,5.37651 -41.27614,5.30713 -14.34638,0.63521 -28.65153,-1.23054 -42.96917,-1.21372 -2.33803,2.79948 3.3226,5.75863 4.43162,8.17328 17.78514,21.12562 41.12994,37.04206 66.86455,46.87793 7.4549,2.54701 14.76213,6.9583 22.56033,7.86896 5.87977,-4.64778 7.3868,-13.00331 9.28845,-19.90849 2.28329,-12.89768 1.62634,-27.31427 -5.25688,-38.75207 -3.29644,-4.25609 -7.70095,-9.03418 -13.64276,-8.35302 z"
       id="path21614" />
    <path
       style="display:inline;opacity:1;fill:#e69875;fill-opacity:1;fill-rule:nonzero;stroke:#000000;stroke-width:3;stroke-linecap:butt;stroke-linejoin:bevel;stroke-dasharray:none;stroke-opacity:1"
       d="m 577.40604,453.42442 c -2.15323,16.84803 -2.96684,34.22947 -6.00677,51.13085 -8.51864,51.12703 -24.44173,103.16171 -58.93499,143.00831 -16.88529,19.45708 -37.63934,35.6213 -61.39916,45.79474 1.20114,4.16564 11.49593,0.81293 16.27119,1.8831 17.0818,0.18053 34.38859,4.7e-4 50.89894,-4.88261 15.36644,-3.01117 29.00198,10.80406 31.1685,25.15354 3.292,17.53896 2.9014,36.55386 -5.69584,52.58831 -1.2458,4.47327 6.2313,3.32178 8.61006,4.90706 37.29138,9.75278 75.99628,14.51274 114.52458,13.85149 6.4914,-0.95645 8.9032,-8.61656 13.0552,-12.81698 17.3759,-23.80255 32.4668,-49.22186 46.4866,-75.09075 1.4157,-4.27049 -5.4279,-5.04668 -7.9113,-6.83798 -39.5903,-16.41662 -66.7235,-52.45493 -86.6207,-88.99558 -24.8995,-46.73016 -40.9582,-97.64486 -52.98328,-149.04605 l -0.57014,-0.68997 z"
       id="path22815" />
    <path
       style="opacity:1;fill:#985b40;fill-opacity:1;fill-rule:nonzero;stroke:#000000;stroke-width:3;stroke-linecap:butt;stroke-linejoin:bevel;stroke-dasharray:none;stroke-opacity:1"
       d="m 555.89729,389.93604 c -54.58283,3.1329 -105.78456,35.49223 -133.63873,82.29259 -21.21438,33.61077 -30.74813,73.87293 -28.62507,113.4421 0.38302,22.35384 7.10538,44.05238 14.02954,65.11462 5.70701,13.38877 11.02828,27.31937 19.43305,39.25456 5.26671,2.16646 10.74417,-2.77424 15.86727,-3.7146 38.83677,-14.74671 69.37924,-46.23012 87.97645,-82.853 22.78071,-44.44349 32.88631,-94.4124 36.24122,-143.93051 0.64609,-22.20447 1.95689,-44.54853 0.13451,-66.70675 -0.20087,-6.41003 -7.56295,-2.15197 -11.41824,-2.89901 z m -63.96575,168.76507 c 11.70621,0 23.41243,0 35.11864,0 0,8.89932 0,17.79864 0,26.69796 -23.41243,0 -46.82486,0 -70.23728,0 0,-8.89932 0,-17.79864 0,-26.69796 11.70621,0 23.41242,0 35.11864,0 z"
       id="path23101" />
    <path
       style="display:inline;opacity:1;fill:#985b40;fill-opacity:1;fill-rule:nonzero;stroke:#000000;stroke-width:3;stroke-linecap:butt;stroke-linejoin:bevel;stroke-dasharray:none;stroke-opacity:1"
       d="m 581.15345,390.47332 c -3.35691,-0.56972 -5.8592,2.48639 -4.39486,5.71492 10.62866,61.68587 25.86516,123.15682 52.03346,180.24322 17.9194,37.76718 40.8381,75.67856 76.6518,98.89886 7.7712,4.36989 15.8262,9.75499 24.8465,10.63358 4.6371,-5.25501 5.2371,-13.21056 7.6267,-19.6729 5.5008,-18.38186 8.0044,-37.4836 7.5916,-56.65882 0.8864,-22.67088 -0.4715,-45.50577 -6.4284,-67.48257 -14.2903,-58.11412 -52.2134,-112.27641 -107.3958,-137.78914 -15.9151,-7.19811 -33.0497,-12.61025 -50.531,-13.88715 z m 118.0846,168.22779 c 11.5413,0 23.0825,0 34.6238,0 0,8.56947 0,17.13896 0,25.70843 -23.0825,0 -46.1651,0 -69.2477,0 0,-8.56947 0,-17.13896 0,-25.70843 11.5413,0 23.0826,0 34.6239,0 z"
       id="path23103" />
  </g>
  <g
     inkscape:groupmode="layer"
     id="layer7"
     inkscape:label="Layer 4"
     style="display:inline">
    <path
       style="opacity:1;fill:none;fill-opacity:1;fill-rule:nonzero;stroke:#000000;stroke-width:10;stroke-linecap:butt;stroke-linejoin:bevel;stroke-dasharray:none;stroke-opacity:1"
       d="m 615.69705,754.73851 -55.84863,15.37857 C 532.38687,661.74783 530.78635,657.65138 530.78635,657.65138 l -1.28236,-6.30016 50.29166,-18.58355 16.0711,53.17184 z"
       id="path18527"
       sodipodi:nodetypes="ccccccc" />
    <path
       style="opacity:1;fill:#3a94c5;fill-opacity:1;fill-rule:nonzero;stroke:#000000;stroke-width:8.58498;stroke-linecap:butt;stroke-linejoin:bevel;stroke-dasharray:none;stroke-opacity:1"
       d="m 426.41618,121.4433 c -17.76569,10.4709 -12.31824,7.23699 -32.18888,18.87733 1.72508,5.17908 2.45821,8.30561 3.89519,11.99899 53.92751,187.85638 50.69408,180.55001 103.1301,368.62214 11.38151,40.24132 15.91264,50.24054 34.80371,122.57948 4.33792,1.50761 9.85241,-0.28937 14.71592,-2.33213 7.21664,-2.64479 13.54803,-4.86618 21.18939,-7.54443 -2.77144,-8.46862 -5.20394,-16.69139 -7.90115,-24.89897 C 437.61679,153.29736 549.68628,547.85092 429.07069,123.96653 Z"
       id="path20346"
       sodipodi:nodetypes="cccccccccc" />
    <path
       style="opacity:1;fill:#606060;fill-opacity:1;fill-rule:nonzero;stroke:#000000;stroke-width:2;stroke-linecap:butt;stroke-linejoin:bevel;stroke-dasharray:none;stroke-opacity:1"
       d="m 575.65028,637.35641 c -13.8066,3.68869 -27.52438,7.78985 -41.11554,12.21019 -1.54977,3.39805 1.59291,7.63865 1.71781,11.28453 8.62324,34.10166 16.84574,68.37342 26.52533,102.1661 2.89679,2.88536 7.27107,-1.31864 10.60524,-1.26803 11.69113,-3.44861 23.77333,-6.12442 35.23783,-10.03383 0.01,-7.80606 -3.5951,-15.48654 -5.2171,-23.14261 -8.7422,-30.26579 -17.1914,-60.63921 -26.6912,-90.67277 -0.42815,0.0762 -0.60527,-0.70974 -1.06237,-0.54358 z"
       id="path20900" />
  </g>
  <g
     inkscape:groupmode="layer"
     id="layer8"
     inkscape:label="Layer 5"
     style="display:inline">
    <path
       style="display:inline;opacity:1;fill:none;fill-opacity:1;fill-rule:nonzero;stroke:#000000;stroke-width:10.459;stroke-linecap:butt;stroke-linejoin:bevel;stroke-dasharray:none;stroke-opacity:1"
       d="m 664.24235,791.83432 c -6.213,-18.57096 -71.4496,-59.34632 -71.4496,-59.34632 -36.39059,-46.02371 22.6331,-49.25342 22.6331,-49.25342 85.2069,10.49661 119.3785,9.28548 119.3785,9.28548"
       id="path18520" />
    <path
       style="opacity:1;fill:none;fill-opacity:1;fill-rule:nonzero;stroke:#000000;stroke-width:10.4639;stroke-linecap:butt;stroke-linejoin:bevel;stroke-dasharray:none;stroke-opacity:1"
       d="m 785.88015,592.46522 -84.6803,31.52296 94.5157,40.21895"
       id="path19991" />
    <path
       style="opacity:1;fill:none;fill-opacity:1;fill-rule:nonzero;stroke:#000000;stroke-width:10;stroke-linecap:butt;stroke-linejoin:bevel;stroke-dasharray:none;stroke-opacity:1"
       d="m 319.93818,606.07565 c 169.79253,25.75259 169.79253,25.75259 169.79253,25.75259 l -174.2665,52.26904"
       id="path19993" />
    <path
       style="opacity:1;fill:#985b40;fill-opacity:1;fill-rule:nonzero;stroke:#000000;stroke-width:2;stroke-linecap:butt;stroke-linejoin:bevel;stroke-dasharray:none;stroke-opacity:1"
       d="m 613.70365,688.71796 c -10.4218,0.44616 -23.3294,4.15074 -27.5097,14.74631 -1.7142,8.20305 3.7297,15.90286 7.7848,22.58525 15.0654,12.45629 32.28,22.12426 47.2152,34.81134 9.61,7.62803 18.9645,15.74469 26.3965,25.45527 3.701,1.31137 5.2509,-4.66929 7.6654,-6.51896 18.1544,-22.6744 32.5888,-47.90797 47.0393,-73.0044 4.7591,-5.31871 6.2458,-11.36003 -3.0789,-9.51485 -33.7723,-1.72985 -67.3444,-5.54734 -101.003,-8.49322 -1.502,-0.071 -3.0062,-0.0918 -4.5096,-0.0667 z"
       id="path21628" />
  </g>
</svg>
