<?xml version="1.0" encoding="UTF-8" standalone="no"?>
<svg
   shape-rendering="geometricPrecision"
   text-rendering="geometricPrecision"
   image-rendering="optimizeQuality"
   fill-rule="evenodd"
   clip-rule="evenodd"
   viewBox="0 0 512 499.368"
   version="1.1"
   id="svg1"
   sodipodi:docname="github.svg"
   width="512"
   height="499.36801"
   inkscape:version="1.4.2 (ebf0e940d0, 2025-05-08)"
   xmlns:inkscape="http://www.inkscape.org/namespaces/inkscape"
   xmlns:sodipodi="http://sodipodi.sourceforge.net/DTD/sodipodi-0.dtd"
   xmlns="http://www.w3.org/2000/svg"
   xmlns:svg="http://www.w3.org/2000/svg">
  <defs
     id="defs1" />
  <sodipodi:namedview
     id="namedview1"
     pagecolor="#ffffff"
     bordercolor="#000000"
     borderopacity="0.25"
     inkscape:showpageshadow="2"
     inkscape:pageopacity="0.0"
     inkscape:pagecheckerboard="0"
     inkscape:deskcolor="#d1d1d1"
     inkscape:zoom="1.7201743"
     inkscape:cx="256.07871"
     inkscape:cy="249.68401"
     inkscape:window-width="1920"
     inkscape:window-height="1052"
     inkscape:window-x="0"
     inkscape:window-y="0"
     inkscape:window-maximized="1"
     inkscape:current-layer="svg1" />
  <path
     fill="#ffffff"
     fill-rule="nonzero"
     d="M 256.003,0 C 114.555,0 0,114.555 0,256.003 c 0,113.286 73.28,208.961 175.038,242.865 12.796,2.247 17.586,-5.433 17.586,-12.153 0,-6.077 -0.309,-26.225 -0.309,-47.686 -64.313,11.844 -80.941,-15.674 -86.058,-30.055 -2.896,-7.37 -15.359,-30.1 -26.269,-36.177 -8.948,-4.808 -21.752,-16.652 -0.31,-16.961 20.168,-0.309 34.574,18.564 39.382,26.244 23.038,38.732 59.839,27.828 74.555,21.101 2.227,-16.627 8.947,-27.828 16.318,-34.239 -56.968,-6.386 -116.467,-28.471 -116.467,-126.399 0,-27.827 9.907,-50.866 26.225,-68.787 -2.562,-6.41 -11.51,-32.655 2.562,-67.853 0,0 21.436,-6.72 70.409,26.244 20.483,-5.767 42.227,-8.638 63.998,-8.638 21.751,0 43.52,2.896 63.997,8.638 48.973,-33.279 70.39,-26.244 70.39,-26.244 14.09,35.192 5.117,61.443 2.562,67.853 16.318,17.921 26.244,40.625 26.244,68.787 0,98.237 -59.84,119.988 -116.801,126.399 9.282,8.014 17.277,23.373 17.277,47.371 0,34.238 -0.309,61.751 -0.309,70.389 0,6.721 4.808,14.735 17.586,12.179 C 438.739,464.964 512,368.955 512,256.003 512,114.555 397.445,0 256.003,0 Z"
     id="path1" />
</svg>
